<svg version="1.1" xmlns="http://www.w3.org/2000/svg" viewBox="0 0 111.199951171875 244" width="111.199951171875" height="244">
  <!-- svg-source:excalidraw -->
  
  <defs>
    <style class="style-fonts">
      @font-face {
        font-family: "Yasuragi";
        src: url("https://draw.moyu.io/yasuragi.woff2");
      }
      @font-face {
        font-family: "YXCZ";
        src: url("https://draw.moyu.io/yxcz.woff2");
      }
      @font-face {
        font-family: "Segoe UI Emoji";
        src: url("https://draw.moyu.io/seguiemj.woff2");
      }
      @font-face {
        font-family: "Dank";
        src: url("https://excalidraw.com/Dank.woff2");
      }
    </style>
  </defs>
  <g transform="translate(17.199951171875 234) rotate(0 38.4000244140625 -112)" stroke="none"><path fill="#616161" d="M -1.51,0.84 Q -1.51,0.84 -3.22,-0.92 -4.93,-2.68 -5.89,-5.17 -6.85,-7.66 -7.58,-9.11 -8.32,-10.55 -8.99,-13.17 -9.66,-15.79 -9.93,-18.63 -10.20,-21.46 -10.30,-23.79 -10.40,-26.12 -10.20,-29.33 -10.00,-32.54 -9.18,-35.95 -8.36,-39.37 -7.55,-42.14 -6.74,-44.92 -5.42,-48.09 -4.10,-51.25 -2.35,-54.51 -0.60,-57.77 1.10,-60.37 2.81,-62.97 4.77,-65.33 6.72,-67.68 9.23,-70.12 11.74,-72.57 14.76,-74.84 17.78,-77.12 20.59,-78.62 23.41,-80.13 26.73,-81.47 30.06,-82.81 32.84,-83.83 35.62,-84.85 39.09,-85.58 42.57,-86.30 46.08,-86.39 49.60,-86.47 53.16,-86.26 56.72,-86.05 59.44,-85.72 62.17,-85.39 65.28,-84.23 68.39,-83.08 70.84,-81.88 73.28,-80.68 75.70,-78.88 78.11,-77.07 79.96,-74.99 81.80,-72.90 83.19,-70.14 84.57,-67.37 85.40,-64.20 86.22,-61.04 86.56,-58.46 86.91,-55.89 86.58,-52.86 86.25,-49.83 85.59,-47.52 84.93,-45.21 83.59,-42.83 82.26,-40.44 80.63,-38.61 79.00,-36.78 77.10,-35.06 75.20,-33.34 72.35,-32.12 69.51,-30.90 67.49,-30.24 65.48,-29.58 62.47,-29.23 59.46,-28.87 56.91,-28.97 54.36,-29.07 51.39,-29.86 48.41,-30.65 46.25,-31.46 44.08,-32.28 41.43,-33.60 38.79,-34.92 36.06,-37.02 33.32,-39.12 31.36,-41.31 29.40,-43.50 27.56,-46.41 25.73,-49.33 24.22,-52.77 22.71,-56.21 21.81,-59.42 20.91,-62.64 20.30,-66.39 19.70,-70.15 19.23,-73.54 18.76,-76.93 18.56,-81.29 18.36,-85.64 18.52,-89.64 18.67,-93.64 19.21,-98.39 19.76,-103.15 20.68,-108.44 21.61,-113.73 22.46,-118.05 23.31,-122.36 24.36,-127.20 25.41,-132.04 26.31,-135.95 27.22,-139.86 28.30,-144.08 29.38,-148.30 30.29,-151.71 31.21,-155.12 32.04,-158.79 32.87,-162.46 33.44,-166.00 34.00,-169.55 34.49,-172.29 34.97,-175.02 35.15,-177.82 35.33,-180.62 35.18,-183.29 35.04,-185.96 34.75,-188.20 34.47,-190.45 34.12,-192.79 33.77,-195.14 33.40,-196.99 33.03,-198.84 32.45,-200.62 31.87,-202.39 31.38,-203.91 30.88,-205.42 30.24,-207.15 29.59,-208.87 28.93,-210.13 28.27,-211.39 27.72,-212.48 27.17,-213.56 26.24,-215.05 25.30,-216.53 24.13,-217.79 22.96,-219.06 22.10,-220.31 21.24,-221.56 23.39,-221.37 25.53,-221.18 25.56,-219.11 25.59,-217.04 25.24,-215.39 24.90,-213.73 24.50,-212.22 24.10,-210.71 23.40,-208.99 22.71,-207.26 22.15,-205.01 21.59,-202.76 21.43,-201.49 21.28,-200.22 21.18,-199.79 21.07,-199.36 20.87,-198.96 20.66,-198.57 20.37,-198.24 20.07,-197.91 19.71,-197.66 19.35,-197.40 18.93,-197.25 18.52,-197.09 18.08,-197.04 17.64,-196.98 17.20,-197.03 16.76,-197.09 16.34,-197.24 15.93,-197.40 15.56,-197.65 15.20,-197.90 14.90,-198.24 14.61,-198.57 14.40,-198.96 14.20,-199.35 14.09,-199.78 13.99,-200.21 13.98,-200.65 13.98,-201.10 17.66,-200.69 21.34,-200.29 21.24,-199.85 21.13,-199.41 20.92,-199.01 20.71,-198.60 20.41,-198.26 20.11,-197.93 19.73,-197.67 19.36,-197.41 18.94,-197.25 18.51,-197.09 18.06,-197.03 17.62,-196.98 17.17,-197.03 16.72,-197.09 16.29,-197.25 15.87,-197.41 15.49,-197.66 15.12,-197.92 14.82,-198.26 14.52,-198.60 14.31,-199.00 14.10,-199.40 13.99,-199.84 13.88,-200.28 13.88,-200.73 13.88,-201.19 14.71,-202.84 15.54,-204.49 15.78,-205.58 16.02,-206.67 16.43,-207.91 16.83,-209.14 17.21,-210.23 17.58,-211.32 17.98,-212.90 18.38,-214.47 18.78,-216.07 19.18,-217.66 19.58,-219.27 19.98,-220.87 20.87,-222.39 21.75,-223.91 25.03,-224.64 28.31,-225.37 29.65,-224.91 30.99,-224.44 32.44,-223.76 33.88,-223.07 35.26,-222.17 36.64,-221.26 38.09,-220.65 39.55,-220.03 40.79,-219.59 42.03,-219.14 43.20,-218.75 44.36,-218.35 45.91,-217.84 47.46,-217.33 48.78,-214.33 50.10,-211.33 50.09,-211.12 50.08,-210.91 50.00,-210.71 49.92,-210.51 49.78,-210.35 49.64,-210.19 49.46,-210.08 49.28,-209.97 49.07,-209.93 48.86,-209.88 48.65,-209.91 48.44,-209.93 48.25,-210.02 48.05,-210.11 47.90,-210.26 47.75,-210.40 47.65,-210.59 47.55,-210.78 47.52,-210.99 47.48,-211.20 47.52,-211.41 47.55,-211.62 47.65,-211.81 47.75,-211.99 47.91,-212.14 48.06,-212.28 48.26,-212.37 48.45,-212.46 48.66,-212.48 48.87,-212.51 49.08,-212.46 49.29,-212.41 49.47,-212.30 49.65,-212.19 49.79,-212.03 49.92,-211.87 50.00,-211.67 50.08,-211.47 50.09,-211.26 50.10,-211.05 50.04,-210.84 49.98,-210.64 49.86,-210.46 49.75,-210.29 49.58,-210.16 49.41,-210.03 49.20,-209.97 49.00,-209.90 48.79,-209.90 48.58,-209.90 48.38,-209.97 48.18,-210.04 48.01,-210.17 47.84,-210.30 47.72,-210.47 47.60,-210.65 47.54,-210.85 47.49,-211.06 47.49,-211.06 47.49,-211.06 46.94,-210.54 46.40,-210.02 44.66,-210.45 42.91,-210.89 41.69,-211.18 40.48,-211.48 39.27,-212.04 38.06,-212.60 36.37,-213.26 34.69,-213.92 33.01,-214.85 31.33,-215.78 30.32,-216.56 29.30,-217.35 27.54,-218.09 25.79,-218.84 24.72,-219.74 23.65,-220.65 25.47,-220.10 27.29,-219.54 27.04,-218.49 26.78,-217.44 26.38,-215.84 25.98,-214.23 25.58,-212.63 25.17,-211.02 24.75,-209.37 24.32,-207.72 24.04,-206.51 23.76,-205.31 23.27,-204.24 22.77,-203.16 22.06,-201.72 21.34,-200.29 21.24,-199.85 21.13,-199.41 20.92,-199.01 20.71,-198.60 20.41,-198.26 20.11,-197.93 19.73,-197.67 19.36,-197.41 18.94,-197.25 18.52,-197.09 18.07,-197.03 17.62,-196.98 17.17,-197.03 16.72,-197.09 16.29,-197.25 15.87,-197.41 15.49,-197.66 15.12,-197.92 14.82,-198.26 14.52,-198.60 14.31,-199.00 14.10,-199.40 13.99,-199.84 13.88,-200.28 13.88,-200.73 13.88,-201.19 17.58,-200.70 21.28,-200.22 21.18,-199.79 21.07,-199.36 20.87,-198.97 20.66,-198.57 20.37,-198.24 20.07,-197.91 19.71,-197.66 19.35,-197.40 18.93,-197.25 18.52,-197.09 18.08,-197.04 17.64,-196.98 17.20,-197.03 16.76,-197.09 16.34,-197.24 15.93,-197.40 15.56,-197.65 15.20,-197.90 14.91,-198.23 14.61,-198.57 14.40,-198.96 14.20,-199.35 14.09,-199.78 13.99,-200.21 13.98,-200.65 13.98,-201.10 14.10,-202.23 14.22,-203.36 14.70,-205.02 15.19,-206.68 15.55,-208.35 15.91,-210.02 16.46,-211.32 17.01,-212.63 17.37,-213.93 17.72,-215.23 18.08,-216.94 18.44,-218.65 18.70,-219.78 18.96,-220.91 19.17,-222.05 19.39,-223.19 20.59,-224.73 21.78,-226.26 24.55,-225.61 27.32,-224.95 28.35,-223.88 29.38,-222.80 30.20,-221.88 31.03,-220.95 32.33,-218.89 33.63,-216.84 34.18,-215.77 34.72,-214.69 35.55,-213.05 36.38,-211.40 37.07,-209.53 37.77,-207.65 38.26,-206.11 38.76,-204.56 39.42,-202.40 40.09,-200.23 40.48,-198.21 40.87,-196.19 41.23,-193.75 41.58,-191.32 41.88,-188.82 42.18,-186.31 42.32,-183.22 42.45,-180.13 42.23,-176.95 42.00,-173.77 41.52,-171.10 41.04,-168.42 40.42,-164.65 39.81,-160.88 38.94,-157.07 38.07,-153.26 37.15,-149.90 36.24,-146.53 35.16,-142.39 34.09,-138.25 33.19,-134.40 32.28,-130.54 31.23,-125.77 30.18,-121.00 29.33,-116.76 28.49,-112.52 27.59,-107.44 26.69,-102.37 26.19,-97.87 25.69,-93.37 25.56,-89.68 25.43,-85.98 25.64,-81.96 25.84,-77.94 26.32,-74.62 26.81,-71.31 27.36,-67.94 27.91,-64.57 28.65,-61.83 29.40,-59.10 30.67,-56.13 31.94,-53.16 33.42,-50.72 34.89,-48.29 36.37,-46.56 37.85,-44.82 39.97,-43.10 42.09,-41.38 44.38,-40.20 46.67,-39.02 48.54,-38.29 50.40,-37.55 52.59,-36.86 54.77,-36.16 56.78,-36.03 58.78,-35.89 61.09,-36.05 63.39,-36.22 65.22,-36.78 67.04,-37.35 68.91,-37.93 70.77,-38.51 72.38,-39.95 73.99,-41.38 75.20,-42.64 76.41,-43.90 77.42,-45.54 78.44,-47.18 78.98,-48.94 79.52,-50.69 79.85,-52.89 80.19,-55.09 79.92,-57.24 79.66,-59.40 79.06,-61.95 78.46,-64.50 77.56,-66.52 76.67,-68.54 75.33,-70.15 73.99,-71.75 72.14,-73.21 70.29,-74.67 68.12,-75.75 65.96,-76.83 63.63,-77.79 61.31,-78.75 58.81,-79.06 56.31,-79.36 53.00,-79.57 49.70,-79.78 46.79,-79.76 43.87,-79.75 40.89,-79.16 37.91,-78.58 35.23,-77.60 32.55,-76.62 29.53,-75.42 26.51,-74.22 24.14,-72.99 21.76,-71.76 19.06,-69.77 16.37,-67.78 14.09,-65.59 11.81,-63.41 10.08,-61.36 8.34,-59.31 6.78,-56.96 5.22,-54.62 3.61,-51.66 1.99,-48.69 0.80,-45.88 -0.38,-43.06 -1.14,-40.42 -1.91,-37.78 -2.63,-34.94 -3.34,-32.10 -3.52,-29.26 -3.69,-26.41 -3.59,-24.24 -3.49,-22.07 -3.29,-19.72 -3.08,-17.36 -2.65,-15.36 -2.21,-13.36 -1.42,-11.50 -0.62,-9.65 -0.14,-7.62 0.33,-5.59 0.92,-3.21 1.51,-0.84 1.59,-0.64 1.67,-0.45 1.70,-0.24 1.73,-0.04 1.71,0.16 1.69,0.37 1.62,0.57 1.55,0.77 1.44,0.94 1.32,1.12 1.17,1.26 1.02,1.40 0.83,1.50 0.65,1.60 0.45,1.66 0.25,1.71 0.04,1.72 -0.16,1.72 -0.37,1.68 -0.57,1.63 -0.76,1.54 -0.95,1.45 -1.11,1.31 -1.27,1.18 -1.39,1.01 -1.51,0.84 -1.51,0.84 L -1.51,0.84 Z"></path></g></svg>